<svg width="1440" height="102" viewBox="0 0 1440 102" fill="none" xmlns="http://www.w3.org/2000/svg">
<path d="M1440 33.5999L1392 47.6174C1344 61.4249 1248 89.7749 1152 86.7824C1056 83.9999 960 50.3999 864 53.1824C768 56.1749 672 95.0249 576 100.8C480 106.575 384 78.2249 288 64.4174C192 50.3999 96 50.3999 48 50.3999L0 50.3999V-6.10352e-05H48C96 -6.10352e-05 192 -6.10352e-05 288 -6.10352e-05C384 -6.10352e-05 480 -6.10352e-05 576 -6.10352e-05C672 -6.10352e-05 768 -6.10352e-05 864 -6.10352e-05C960 -6.10352e-05 1056 -6.10352e-05 1152 -6.10352e-05C1248 -6.10352e-05 1344 -6.10352e-05 1392 -6.10352e-05H1440V33.5999Z" fill="#D1F8DA"/>
</svg>
